<?xml version="1.0" standalone="no"?>
<!DOCTYPE svg PUBLIC "-//W3C//DTD SVG 20010904//EN"
 "http://www.w3.org/TR/2001/REC-SVG-20010904/DTD/svg10.dtd">
<svg version="1.0" xmlns="http://www.w3.org/2000/svg"
 width="187.000000pt" height="221.000000pt" viewBox="0 0 187.000000 221.000000"
 preserveAspectRatio="xMidYMid meet">

<g transform="translate(0.000000,221.000000) scale(0.100000,-0.100000)"
fill="#000000" stroke="none">
<path d="M885 2201 c-152 -40 -273 -213 -327 -466 -26 -123 -34 -349 -18 -510
6 -72 13 -141 14 -154 1 -20 -12 -32 -79 -70 -122 -71 -232 -149 -302 -216
-81 -78 -82 -100 -1 -34 213 172 514 322 816 405 69 19 129 34 134 34 4 0 8
-17 8 -39 0 -53 36 -105 76 -109 25 -2 38 4 68 39 21 23 49 65 61 94 19 41 30
54 52 59 33 7 363 21 363 15 0 -2 -11 -26 -24 -52 -51 -99 -42 -216 34 -442
52 -155 64 -228 50 -308 -21 -115 -85 -189 -215 -252 -118 -57 -337 -104 -485
-105 -104 0 -131 -9 -147 -48 -8 -19 -12 -36 -10 -39 3 -2 63 1 133 7 300 25
488 93 613 219 110 112 165 236 165 376 0 83 -4 101 -53 244 -47 136 -54 165
-59 257 l-5 103 37 53 c50 73 48 78 -26 73 -35 -3 -121 -7 -193 -10 -71 -3
-142 -8 -157 -11 l-28 -6 0 118 c0 66 -5 156 -11 201 -12 81 -12 83 12 102 13
12 47 29 74 39 37 14 54 28 67 53 10 18 16 35 14 37 -9 8 -93 -37 -134 -71
-24 -21 -47 -37 -50 -37 -4 0 -17 37 -30 81 -48 174 -139 304 -244 349 -56 24
-145 34 -193 21z m146 -103 c94 -40 179 -159 231 -320 l30 -97 -56 -113 c-30
-62 -67 -155 -81 -207 -24 -91 -35 -111 -63 -111 -25 0 -287 -90 -377 -129
-79 -34 -91 -37 -96 -23 -16 43 -33 254 -32 412 0 317 43 473 155 563 73 58
188 69 289 25z m285 -560 c8 -51 14 -125 14 -164 l0 -71 -75 -15 -75 -15 0 23
c0 38 28 157 51 219 24 65 59 128 66 121 3 -2 11 -46 19 -98z m-1 -350 c-11
-49 -24 -68 -46 -68 -31 0 -57 18 -74 50 -15 29 -15 30 12 36 16 3 33 7 38 9
6 2 25 4 43 4 33 1 33 0 27 -31z"/>
<path d="M944 1081 c-29 -13 -64 -59 -64 -86 0 -34 37 -73 76 -81 96 -18 158
81 90 145 -26 24 -72 34 -102 22z"/>
<path d="M140 630 c-22 -5 -49 -24 -72 -50 -43 -48 -49 -67 -15 -46 36 22 88
27 173 15 117 -16 226 -56 442 -163 131 -64 218 -101 270 -113 80 -18 258 -24
342 -11 36 6 40 5 20 -3 -57 -23 -168 -39 -273 -39 -118 1 -165 9 -342 58
-152 43 -270 62 -384 62 -152 0 -229 -31 -275 -111 l-19 -33 34 22 c99 61 280
51 587 -30 l197 -52 160 0 c155 -1 163 0 254 32 113 39 208 88 276 141 28 22
73 53 100 70 32 19 57 43 68 65 15 33 15 35 -1 29 -9 -4 -27 -14 -40 -24 -37
-29 -170 -76 -261 -93 -46 -9 -127 -16 -180 -16 -179 0 -274 27 -501 141 -259
130 -437 177 -560 149z"/>
</g>
</svg>
